<!DOCTYPE svg PUBLIC "-//W3C//DTD SVG 1.1//EN" "http://www.w3.org/Graphics/SVG/1.1/DTD/svg11.dtd"><svg aria-hidden="true" xmlns="http://www.w3.org/2000/svg" xmlns:xlink="http://www.w3.org/1999/xlink"><symbol fill="none" viewBox="0 0 24 24" id="about" xmlns="http://www.w3.org/2000/svg"><path d="M13.1318 11.3125L12.7388 10.7333L12.7388 10.7333L13.1318 11.3125ZM4.98688 10.3431L4.31382 10.5354L4.31382 10.5354L4.98688 10.3431ZM4.44847 8.45868L3.77541 8.65098L3.77541 8.65098L4.44847 8.45868ZM2.33917 9.0235L3.01827 8.85373L3.01827 8.85372L2.33917 9.0235ZM3.89881 15.262L4.57791 15.0923L4.57791 15.0923L3.89881 15.262ZM13.7445 21C13.7445 21.3866 14.0579 21.7 14.4445 21.7C14.8311 21.7 15.1445 21.3866 15.1445 21H13.7445ZM15.1445 18.3333C15.1445 17.9467 14.8311 17.6333 14.4445 17.6333C14.0579 17.6333 13.7445 17.9467 13.7445 18.3333H15.1445ZM18.5 10V9.3C18.3618 9.3 18.2267 9.34091 18.1117 9.41756L18.5 10ZM15.5 10H16.2C16.2 9.6134 15.8866 9.3 15.5 9.3V10ZM15.5 12H14.8C14.8 12.2582 14.9421 12.4954 15.1697 12.6172C15.3973 12.739 15.6735 12.7256 15.8883 12.5824L15.5 12ZM10.889 11.3C9.06642 11.3 7.58896 9.82255 7.58896 8.00001H6.18896C6.18896 10.5958 8.29322 12.7 10.889 12.7V11.3ZM7.58896 8.00001C7.58896 6.17746 9.06642 4.7 10.889 4.7V3.3C8.29322 3.3 6.18896 5.40427 6.18896 8.00001H7.58896ZM10.889 4.7C12.7115 4.7 14.189 6.17746 14.189 8.00001H15.589C15.589 5.40427 13.4847 3.3 10.889 3.3V4.7ZM14.189 8.00001C14.189 9.13616 13.6154 10.1386 12.7388 10.7333L13.5248 11.8918C14.769 11.0477 15.589 9.61973 15.589 8.00001H14.189ZM12.7388 10.7333C12.2115 11.091 11.5757 11.3 10.889 11.3V12.7C11.8647 12.7 12.7728 12.4019 13.5248 11.8918L12.7388 10.7333ZM18.2555 21V18.7778H16.8555V21H18.2555ZM12.6666 13.1889H9.68766V14.5889H12.6666V13.1889ZM5.65995 10.1508L5.12154 8.26637L3.77541 8.65098L4.31382 10.5354L5.65995 10.1508ZM1.66007 9.19328L3.21971 15.4318L4.57791 15.0923L3.01827 8.85373L1.66007 9.19328ZM3.21971 15.4318C3.48767 16.5037 4.45071 17.2556 5.55553 17.2556V15.8556C5.09312 15.8556 4.69006 15.5409 4.57791 15.0923L3.21971 15.4318ZM3.39853 6.9667C2.23273 6.9667 1.37732 8.06229 1.66007 9.19328L3.01827 8.85372C2.95643 8.60634 3.14353 8.3667 3.39853 8.3667V6.9667ZM5.12154 8.26637C4.90174 7.49708 4.1986 6.9667 3.39853 6.9667V8.3667C3.57353 8.3667 3.72733 8.48271 3.77541 8.65098L5.12154 8.26637ZM9.68766 13.1889C7.81741 13.1889 6.17375 11.9491 5.65995 10.1508L4.31382 10.5354C4.99934 12.9347 7.19234 14.5889 9.68766 14.5889V13.1889ZM18.2555 18.7778C18.2555 15.6911 15.7533 13.1889 12.6666 13.1889V14.5889C14.9801 14.5889 16.8555 16.4643 16.8555 18.7778H18.2555ZM15.1445 21V18.3333H13.7445V21H15.1445ZM14.5 3.7H19.5V2.3H14.5V3.7ZM20.8 5V8H22.2V5H20.8ZM19.5 9.3H18.5V10.7H19.5V9.3ZM15.5 9.3H14V10.7H15.5V9.3ZM18.1117 9.41756L15.1117 11.4176L15.8883 12.5824L18.8883 10.5824L18.1117 9.41756ZM16.2 12V10H14.8V12H16.2ZM20.8 8C20.8 8.71797 20.218 9.3 19.5 9.3V10.7C20.9912 10.7 22.2 9.49117 22.2 8H20.8ZM19.5 3.7C20.218 3.7 20.8 4.28203 20.8 5H22.2C22.2 3.50883 20.9912 2.3 19.5 2.3V3.7ZM14.5 2.3C13.3671 2.3 12.3988 2.99751 11.9979 3.98386L13.2949 4.51098C13.4887 4.03415 13.9562 3.7 14.5 3.7V2.3Z" fill="currentColor"/><circle cx="16.5" cy="6.5" fill="currentColor" r="0.5"/><circle cx="18.5" cy="6.5" fill="currentColor" r="0.5"/></symbol><symbol id="blocks" viewBox="0 0 140.194 140.194" xml:space="preserve" xmlns="http://www.w3.org/2000/svg">
<g>
	<g id="b_x33_57._Stop">
		<g>
			<path d="M130.792,35.054C111.443,1.533,68.573-9.954,35.055,9.404C1.533,28.754-9.954,71.619,9.404,105.139     c19.351,33.52,62.215,45.008,95.735,25.652C138.659,111.435,150.147,68.573,130.792,35.054z M98.13,118.649     c-26.816,15.485-61.106,6.297-76.588-20.522C6.057,71.314,15.246,37.021,42.063,21.542c26.814-15.485,61.108-6.296,76.589,20.521     C134.135,68.879,124.947,103.167,98.13,118.649z M84.113,49.068H56.081c-3.869,0-7.009,3.14-7.009,7.012v28.03     c0,3.87,3.14,7.008,7.009,7.008h28.032c3.871,0,7.009-3.138,7.009-7.008V56.08C91.122,52.205,87.984,49.068,84.113,49.068z"/>
		</g>
	</g>
</g>
<g>
</g>
<g>
</g>
<g>
</g>
<g>
</g>
<g>
</g>
<g>
</g>
<g>
</g>
<g>
</g>
<g>
</g>
<g>
</g>
<g>
</g>
<g>
</g>
<g>
</g>
<g>
</g>
<g>
</g>
</symbol><symbol fill="none" viewBox="0 0 24 24" id="contacts" xmlns="http://www.w3.org/2000/svg"><path d="M4 21V18.5C4 15.4624 6.46243 13 9.5 13H14.5C17.5376 13 20 15.4624 20 18.5V21M8 21V18M16 21V18M11 9H7.5C6.67157 9 6 8.32843 6 7.5V6.5C6 5.16725 6.57938 3.96983 7.5 3.14585M18 8.00001V6.50001C18 5.16726 17.4206 3.96983 16.5 3.14585M20 7.5V6M4 7.5V6M16 7C16 9.20914 14.2091 11 12 11C9.79086 11 8 9.20914 8 7C8 4.79086 9.79086 3 12 3C14.2091 3 16 4.79086 16 7Z" stroke="currentColor" stroke-linecap="round" stroke-linejoin="round" stroke-width="1.4"/></symbol><symbol fill="none" viewBox="0 0 14 14" id="contrast" xmlns="http://www.w3.org/2000/svg"><g clip-path="url(#dclip0_2_779)"><path clip-rule="evenodd" d="M12.265 6.987C12.2588 8.12124 11.861 9.21852 11.1388 10.0932C10.4167 10.9679 9.41456 11.5662 8.302 11.787C8.18303 11.8052 8.06149 11.7966 7.94626 11.7619C7.83103 11.7271 7.72503 11.667 7.63599 11.586C7.54695 11.5051 7.47714 11.4052 7.43163 11.2938C7.38613 11.1823 7.3661 11.0622 7.373 10.942L7.393 3.053C7.38673 2.93214 7.40733 2.81139 7.45331 2.69943C7.49929 2.58748 7.56951 2.48711 7.65892 2.40554C7.74833 2.32397 7.85471 2.26324 7.9704 2.2277C8.08609 2.19216 8.20822 2.1827 8.328 2.2C9.43809 2.41493 10.4385 3.01011 11.1571 3.88311C11.8757 4.75611 12.2675 5.8523 12.265 6.983V6.987ZM11.937 11.933C12.9073 10.9526 13.5655 9.70684 13.8285 8.3528C14.0915 6.99877 13.9475 5.59717 13.4148 4.32486C12.882 3.05255 11.9844 1.96655 10.8351 1.20388C9.68574 0.44122 8.33627 0.036067 6.95693 0.0395502C5.5776 0.0430333 4.2302 0.454996 3.08475 1.22346C1.9393 1.99192 1.04713 3.08244 0.520817 4.35742C-0.00549495 5.6324 -0.142368 7.03471 0.12747 8.3874C0.397308 9.74009 1.06177 10.9826 2.037 11.958C2.6884 12.6067 3.4612 13.1208 4.31127 13.4708C5.16134 13.8208 6.07204 14 6.99135 13.998C7.91066 13.9961 8.82059 13.813 9.66917 13.4594C10.5177 13.1058 11.2884 12.5885 11.937 11.937V11.933Z" fill="currentColor" fill-rule="evenodd"/></g><defs><clipPath id="dclip0_2_779"><rect fill="currentColor" height="14" width="14"/></clipPath></defs></symbol><symbol viewBox="-155 0 566 566" preserveAspectRatio="xMinYMin meet" id="gulp-logo-svgrepo-com" xmlns="http://www.w3.org/2000/svg">
  <metadata id="emetadata14">
    <rdf:RDF xmlns:rdf="http://www.w3.org/1999/02/22-rdf-syntax-ns#">
      <cc:Work rdf:about="" xmlns:cc="http://creativecommons.org/ns#">
        <dc:format xmlns:dc="http://purl.org/dc/elements/1.1/">image/svg+xml</dc:format>
        <dc:type rdf:resource="http://purl.org/dc/dcmitype/StillImage" xmlns:dc="http://purl.org/dc/elements/1.1/"/>
      </cc:Work>
    </rdf:RDF>
  </metadata>
  <defs id="edefs12"/>
  <sodipodi:namedview pagecolor="#ffffff" bordercolor="#666666" borderopacity="1" objecttolerance="10" gridtolerance="10" guidetolerance="10" xmlns:inkscape="http://www.inkscape.org/namespaces/inkscape" inkscape:pageopacity="0" inkscape:pageshadow="2" inkscape:window-width="707" inkscape:window-height="480" id="enamedview10" showgrid="false" inkscape:zoom="1.1125" inkscape:cx="400" inkscape:cy="-31.460674" inkscape:window-x="0" inkscape:window-y="0" inkscape:window-maximized="0" inkscape:current-layer="svg8" xmlns:sodipodi="http://sodipodi.sourceforge.net/DTD/sodipodi-0.dtd"/>
  <path d="M197.28 548.749l5.427-90.43 14.985-25.58s-34.106 13.952-91.205 13.952c-57.1 0-90.689-13.694-90.689-13.694l16.794 27.904 5.941 87.848c0 9.418 31.059 17.052 69.374 17.052 38.313 0 69.373-7.634 69.373-17.052M180.161 126.454l11.391-45.025 63.081-66.376L238.007.892l-66.784 70.707-13.226 53.793a886.14 886.14 0 0 0-29.873-.497c-70.336 0-127.355 8.016-127.355 17.902 0 9.887 57.019 17.902 127.355 17.902 70.335 0 127.353-8.015 127.353-17.902 0-7.28-30.924-13.546-75.316-16.343" fill="currentColor" id="epath2"/>
  <path d="M173.535 151.669s-2.467.553-9.724.584c-7.259.03-12.413-.047-14.466-1.917-.552-.502-.854-1.499-.851-2.174.006-1.285.918-2.042 2.08-2.516l1.099 1.724c-.478.165-.751.36-.752.568-.004.976 7.422 1.644 13.102 1.572 5.681-.07 12.545-.538 12.551-1.5 0-.291-.519-.565-1.422-.781l1.094-1.712c1.472.457 2.757 1.34 2.754 2.868-.014 2.598-3.32 2.993-5.465 3.284" fill="currentColor" id="epath4"/>
  <path d="M254.509 15.184c1.586-1.832-.821-6.518-5.376-10.465C244.576.774 239.596-.94 238.007.892c-1.587 1.832.821 6.518 5.378 10.463 4.555 3.946 9.537 5.662 11.124 3.829M194.246 327.865c-1.495-14.384 31.462-35.216 23.004-35.883-18.208 1.041-27.27 21.338-36.431 42.596-3.357 7.791-14.844 41.013-22.378 36.923-7.532-4.088 9.765-31.407 14.613-47.631-5.594 4.102-26.109 20.041-31.396 5.114-8.5 7.219-26.663 11.13-24.614-7.833-4.522 8.01-14.671 19.193-26.853 14.546-15.998-6.101 9.27-57.062 15.553-54.491 6.284 2.57-1.268 14.179-3.246 18.687-4.35 9.921-9.375 22.393-6.018 24.946 5.751 4.374 21.401-16.547 21.749-17.007 2.927-3.867 11.266-29.166 17.987-26.261 6.721 2.905-16.764 36.308-7.983 42.937 1.771 1.338 9.017-.825 13.425-5.594 2.852-3.085 1.871-9.918 11.378-32.59 9.507-22.671 17.98-50.905 24.5-48.754 6.52 2.15 1.146 16.641-1.193 22.043-10.976 25.354-29.956 67.241-21.005 64.07 8.951-3.17 13.612-3.356 22.377-13.613 8.765-10.257 8.361-27.152 14.203-26.793 5.844.36 4.863 5.777 3.446 9.902 5.75-6.58 27.256-20.438 32.448-6.713 6.15 16.249-30.769 39.72-21.564 38.523 8.975-1.167 23.515-10.376 29.723-18.749l17.088-153.626s-17.195 14.23-126.589 14.23c-109.395 0-124.811-13.934-124.811-13.934l14.548 140.224c7.722-21.947 26.059-66.339 54.963-64.849 13.148.678 30.7 25.995 15.665 26.853-6.364.362-7.01-12.637-14.546-14.546-5.438-1.378-13.009 3.043-17.902 7.833-9.758 9.55-30.745 47.229-27.972 66.014 3.533 23.949 33.048-8.322 38.042-17.903 3.517-6.749 5.893-26.745 13.585-24.647 7.693 2.098-.671 22.734-6.247 40.979-6.264 20.487-9.557 42.098-17.408 39.612-7.852-2.484 4.938-28.932 4.475-33.566-7.38 6.809-20.976 24.047-38.37 15.515l9.035 87.078s24.013 18.973 96.35 18.973c72.337 0 97.239-18.677 97.239-18.677l11.219-100.857c-9.179 8.938-38.229 24.81-40.089 6.919" fill="currentColor" id="epath6"/>
</symbol><symbol fill="none" viewBox="0 0 24 24" id="hi" xmlns="http://www.w3.org/2000/svg"><path d="M4 21V18.5C4 15.4624 6.46243 13 9.5 13H12.8513C15.307 13 17.4651 11.3721 18.1397 9.01097L18.7454 6.89097C18.8961 6.3636 19.3781 6 19.9266 6C20.7258 6 21.3122 6.75106 21.1184 7.5264L19.3638 14.5448C19.15 15.4 18.3816 16 17.5 16M8 21V18M16 6.5C16 8.70914 14.2091 10.5 12 10.5C9.79086 10.5 8 8.70914 8 6.5C8 4.29086 9.79086 2.5 12 2.5C14.2091 2.5 16 4.29086 16 6.5Z" stroke="currentColor" stroke-linecap="round" stroke-width="1.4"/></symbol><symbol fill="none" viewBox="0 0 24 24" id="skills" xmlns="http://www.w3.org/2000/svg"><path d="M4 21V19.5C4 16.4624 6.46243 14 9.5 14H12.5C15.5376 14 18 16.4624 18 19.5V21M7 21V18M15 21V18M16.5 6L16.8367 5.49493C17.1969 4.95461 17.9371 4.82782 18.4566 5.21745C19.0073 5.63047 19.0645 6.43549 18.5778 6.92224L17.8536 7.64645C17.6272 7.87282 17.5 8.17986 17.5 8.5M17.5 10V10.2M13.8281 4.89801C14.6435 3.74945 15.9842 3 17.5 3C19.9853 3 22 5.01472 22 7.5C22 9.98528 19.9853 12 17.5 12C16.2549 12 15.1279 11.4943 14.3131 10.6771M15 8.00001C15 5.79086 13.2091 4 11 4C8.79086 4 7 5.79086 7 8.00001C7 10.2092 8.79086 12 11 12C11.8312 12 12.6032 11.7465 13.2429 11.3125C14.3033 10.5931 15 9.37794 15 8.00001Z" stroke="currentColor" stroke-linecap="round" stroke-linejoin="round" stroke-width="1.4"/></symbol><symbol fill="none" viewBox="0 0 24 24" id="works" xmlns="http://www.w3.org/2000/svg"><circle cx="10.5" cy="16.5" fill="currentColor" r="0.5"/><circle cx="10.5" cy="19.5" fill="currentColor" r="0.5"/><path d="M16.7 8C16.7 7.6134 16.3866 7.3 16 7.3C15.6134 7.3 15.3 7.6134 15.3 8H16.7ZM8.7 8C8.7 7.6134 8.3866 7.3 8 7.3C7.6134 7.3 7.3 7.6134 7.3 8H8.7ZM3.3 21C3.3 21.3866 3.6134 21.7 4 21.7C4.3866 21.7 4.7 21.3866 4.7 21H3.3ZM19.3 21C19.3 21.3866 19.6134 21.7 20 21.7C20.3866 21.7 20.7 21.3866 20.7 21H19.3ZM7.3 21C7.3 21.3866 7.6134 21.7 8 21.7C8.3866 21.7 8.7 21.3866 8.7 21H7.3ZM8.7 14.5C8.7 14.1134 8.3866 13.8 8 13.8C7.6134 13.8 7.3 14.1134 7.3 14.5H8.7ZM7.74372 8.39039C8.08582 8.57046 8.50913 8.4391 8.6892 8.097C8.86927 7.7549 8.73791 7.33159 8.39581 7.15152L7.74372 8.39039ZM9.61444 4.85393C9.95492 5.03706 10.3794 4.90951 10.5625 4.56903C10.7456 4.22856 10.6181 3.80409 10.2776 3.62096L9.61444 4.85393ZM15.6495 7.12651C15.3148 7.32009 15.2005 7.7483 15.3941 8.08294C15.5877 8.41759 16.0159 8.53194 16.3505 8.33836L15.6495 7.12651ZM13.6495 3.66164C13.3148 3.85522 13.2005 4.28343 13.3941 4.61807C13.5877 4.95272 14.0159 5.06707 14.3505 4.87349L13.6495 3.66164ZM13.3 4C13.3 4.3866 13.6134 4.7 14 4.7C14.3866 4.7 14.7 4.3866 14.7 4H13.3ZM10.2676 5L10.9023 4.70492L10.8891 4.67656L10.8735 4.64949L10.2676 5ZM10.808 6.44644C11.158 6.61055 11.5748 6.45983 11.7389 6.10979C11.903 5.75975 11.7523 5.34295 11.4023 5.17884L10.808 6.44644ZM8 6.8C7.6134 6.8 7.3 7.1134 7.3 7.5C7.3 7.8866 7.6134 8.2 8 8.2V6.8ZM10 8.2C10.3866 8.2 10.7 7.8866 10.7 7.5C10.7 7.1134 10.3866 6.8 10 6.8V8.2ZM15.3 21C15.3 21.3866 15.6134 21.7 16 21.7C16.3866 21.7 16.7 21.3866 16.7 21H15.3ZM16.7 18.3333C16.7 17.9467 16.3866 17.6333 16 17.6333C15.6134 17.6333 15.3 17.9467 15.3 18.3333H16.7ZM15.3 8C15.3 9.82254 13.8225 11.3 12 11.3V12.7C14.5957 12.7 16.7 10.5957 16.7 8H15.3ZM12 11.3C10.1775 11.3 8.7 9.82254 8.7 8H7.3C7.3 10.5957 9.40426 12.7 12 12.7V11.3ZM4.7 21V19.5H3.3V21H4.7ZM9.5 14.7H14.5V13.3H9.5V14.7ZM19.3 19.5V21H20.7V19.5H19.3ZM14.5 14.7C17.151 14.7 19.3 16.849 19.3 19.5H20.7C20.7 16.0758 17.9242 13.3 14.5 13.3V14.7ZM4.7 19.5C4.7 16.849 6.84903 14.7 9.5 14.7V13.3C6.07583 13.3 3.3 16.0758 3.3 19.5H4.7ZM8.7 21V14.5H7.3V21H8.7ZM7.7 6C7.7 5.28203 8.28203 4.7 9 4.7V3.3C7.50883 3.3 6.3 4.50883 6.3 6H7.7ZM8.39581 7.15152C7.9806 6.93297 7.7 6.49869 7.7 6H6.3C6.3 7.03876 6.8868 7.93934 7.74372 8.39039L8.39581 7.15152ZM9 4.7C9.22366 4.7 9.43219 4.7559 9.61444 4.85393L10.2776 3.62096C9.89654 3.416 9.46078 3.3 9 3.3V4.7ZM15 4.7C15.718 4.7 16.3 5.28203 16.3 6H17.7C17.7 4.50883 16.4912 3.3 15 3.3V4.7ZM16.3 6C16.3 6.4803 16.0399 6.90068 15.6495 7.12651L16.3505 8.33836C17.1557 7.87257 17.7 7.00026 17.7 6H16.3ZM14.3505 4.87349C14.541 4.76329 14.7621 4.7 15 4.7V3.3C14.5094 3.3 14.0473 3.4315 13.6495 3.66164L14.3505 4.87349ZM10.7 4C10.7 3.28203 11.282 2.7 12 2.7V1.3C10.5088 1.3 9.3 2.50883 9.3 4H10.7ZM12 2.7C12.718 2.7 13.3 3.28203 13.3 4H14.7C14.7 2.50883 13.4912 1.3 12 1.3V2.7ZM10.8735 4.64949C10.7633 4.45899 10.7 4.23795 10.7 4H9.3C9.3 4.49062 9.4315 4.95266 9.66164 5.35051L10.8735 4.64949ZM9.6328 5.29508C9.72169 5.48629 10.0531 6.09253 10.808 6.44644L11.4023 5.17884C11.0654 5.02089 10.9215 4.74617 10.9023 4.70492L9.6328 5.29508ZM8 8.2H10V6.8H8V8.2ZM16.7 21V18.3333H15.3V21H16.7Z" fill="currentColor"/></symbol></svg>