<!DOCTYPE svg PUBLIC "-//W3C//DTD SVG 1.1//EN" "http://www.w3.org/Graphics/SVG/1.1/DTD/svg11.dtd"><svg aria-hidden="true" xmlns="http://www.w3.org/2000/svg" xmlns:xlink="http://www.w3.org/1999/xlink"><symbol fill="none" viewBox="0 0 24 24" id="about" xmlns="http://www.w3.org/2000/svg"><path d="M13.1318 11.3125L12.7388 10.7333L12.7388 10.7333L13.1318 11.3125ZM4.98688 10.3431L4.31382 10.5354L4.31382 10.5354L4.98688 10.3431ZM4.44847 8.45868L3.77541 8.65098L3.77541 8.65098L4.44847 8.45868ZM2.33917 9.0235L3.01827 8.85373L3.01827 8.85372L2.33917 9.0235ZM3.89881 15.262L4.57791 15.0923L4.57791 15.0923L3.89881 15.262ZM13.7445 21C13.7445 21.3866 14.0579 21.7 14.4445 21.7C14.8311 21.7 15.1445 21.3866 15.1445 21H13.7445ZM15.1445 18.3333C15.1445 17.9467 14.8311 17.6333 14.4445 17.6333C14.0579 17.6333 13.7445 17.9467 13.7445 18.3333H15.1445ZM18.5 10V9.3C18.3618 9.3 18.2267 9.34091 18.1117 9.41756L18.5 10ZM15.5 10H16.2C16.2 9.6134 15.8866 9.3 15.5 9.3V10ZM15.5 12H14.8C14.8 12.2582 14.9421 12.4954 15.1697 12.6172C15.3973 12.739 15.6735 12.7256 15.8883 12.5824L15.5 12ZM10.889 11.3C9.06642 11.3 7.58896 9.82255 7.58896 8.00001H6.18896C6.18896 10.5958 8.29322 12.7 10.889 12.7V11.3ZM7.58896 8.00001C7.58896 6.17746 9.06642 4.7 10.889 4.7V3.3C8.29322 3.3 6.18896 5.40427 6.18896 8.00001H7.58896ZM10.889 4.7C12.7115 4.7 14.189 6.17746 14.189 8.00001H15.589C15.589 5.40427 13.4847 3.3 10.889 3.3V4.7ZM14.189 8.00001C14.189 9.13616 13.6154 10.1386 12.7388 10.7333L13.5248 11.8918C14.769 11.0477 15.589 9.61973 15.589 8.00001H14.189ZM12.7388 10.7333C12.2115 11.091 11.5757 11.3 10.889 11.3V12.7C11.8647 12.7 12.7728 12.4019 13.5248 11.8918L12.7388 10.7333ZM18.2555 21V18.7778H16.8555V21H18.2555ZM12.6666 13.1889H9.68766V14.5889H12.6666V13.1889ZM5.65995 10.1508L5.12154 8.26637L3.77541 8.65098L4.31382 10.5354L5.65995 10.1508ZM1.66007 9.19328L3.21971 15.4318L4.57791 15.0923L3.01827 8.85373L1.66007 9.19328ZM3.21971 15.4318C3.48767 16.5037 4.45071 17.2556 5.55553 17.2556V15.8556C5.09312 15.8556 4.69006 15.5409 4.57791 15.0923L3.21971 15.4318ZM3.39853 6.9667C2.23273 6.9667 1.37732 8.06229 1.66007 9.19328L3.01827 8.85372C2.95643 8.60634 3.14353 8.3667 3.39853 8.3667V6.9667ZM5.12154 8.26637C4.90174 7.49708 4.1986 6.9667 3.39853 6.9667V8.3667C3.57353 8.3667 3.72733 8.48271 3.77541 8.65098L5.12154 8.26637ZM9.68766 13.1889C7.81741 13.1889 6.17375 11.9491 5.65995 10.1508L4.31382 10.5354C4.99934 12.9347 7.19234 14.5889 9.68766 14.5889V13.1889ZM18.2555 18.7778C18.2555 15.6911 15.7533 13.1889 12.6666 13.1889V14.5889C14.9801 14.5889 16.8555 16.4643 16.8555 18.7778H18.2555ZM15.1445 21V18.3333H13.7445V21H15.1445ZM14.5 3.7H19.5V2.3H14.5V3.7ZM20.8 5V8H22.2V5H20.8ZM19.5 9.3H18.5V10.7H19.5V9.3ZM15.5 9.3H14V10.7H15.5V9.3ZM18.1117 9.41756L15.1117 11.4176L15.8883 12.5824L18.8883 10.5824L18.1117 9.41756ZM16.2 12V10H14.8V12H16.2ZM20.8 8C20.8 8.71797 20.218 9.3 19.5 9.3V10.7C20.9912 10.7 22.2 9.49117 22.2 8H20.8ZM19.5 3.7C20.218 3.7 20.8 4.28203 20.8 5H22.2C22.2 3.50883 20.9912 2.3 19.5 2.3V3.7ZM14.5 2.3C13.3671 2.3 12.3988 2.99751 11.9979 3.98386L13.2949 4.51098C13.4887 4.03415 13.9562 3.7 14.5 3.7V2.3Z" fill="currentColor"/><circle cx="16.5" cy="6.5" fill="currentColor" r="0.5"/><circle cx="18.5" cy="6.5" fill="currentColor" r="0.5"/></symbol><symbol fill="currentColor" viewBox="0 0 32 32" id="blocks" xmlns="http://www.w3.org/2000/svg">
  <defs>
    <style>.bcls-1 {
        fill: none;
      }</style>
  </defs>
  <title>circle-packing</title>
  <path d="M16,2A14,14,0,1,0,30,16,14,14,0,0,0,16,2Zm7.5,7A3.5,3.5,0,1,1,20,12.5,3.5041,3.5041,0,0,1,23.5,9Zm.4348-1.978C23.791,7.0107,23.6467,7,23.5,7a5.4826,5.4826,0,0,0-4.1323,1.8784,8.0109,8.0109,0,0,0-5.5664-4.6675A11.8554,11.8554,0,0,1,23.9348,7.022ZM16,28a4,4,0,1,1,4-4A4.0045,4.0045,0,0,1,16,28ZM12,18a6,6,0,1,1,6-6A6.0067,6.0067,0,0,1,12,18ZM4,16a11.97,11.97,0,0,1,.2112-2.1987,7.9921,7.9921,0,0,0,7.3459,6.1762,5.9581,5.9581,0,0,0-.89,6.7564A12.0025,12.0025,0,0,1,4,16ZM21.3325,26.7339a5.9834,5.9834,0,0,0-4.1782-8.6206,8.02,8.02,0,0,0,1.9126-2.3672,5.4883,5.4883,0,0,0,8.9167-.0679c.003.1079.0164.2134.0164.3218A12.0025,12.0025,0,0,1,21.3325,26.7339Z"/>
  <rect id="b_Transparent_Rectangle_" data-name="&lt;Transparent Rectangle&gt;" class="bcls-1" width="32" height="32"/>
</symbol><symbol fill="none" viewBox="0 0 24 24" id="contacts" xmlns="http://www.w3.org/2000/svg"><path d="M4 21V18.5C4 15.4624 6.46243 13 9.5 13H14.5C17.5376 13 20 15.4624 20 18.5V21M8 21V18M16 21V18M11 9H7.5C6.67157 9 6 8.32843 6 7.5V6.5C6 5.16725 6.57938 3.96983 7.5 3.14585M18 8.00001V6.50001C18 5.16726 17.4206 3.96983 16.5 3.14585M20 7.5V6M4 7.5V6M16 7C16 9.20914 14.2091 11 12 11C9.79086 11 8 9.20914 8 7C8 4.79086 9.79086 3 12 3C14.2091 3 16 4.79086 16 7Z" stroke="currentColor" stroke-linecap="round" stroke-linejoin="round" stroke-width="1.4"/></symbol><symbol fill="currentColor" viewBox="0 0 256 256" id="contrast" xmlns="http://www.w3.org/2000/svg">
  <path d="M201.53906,54.46094A103.99994,103.99994,0,1,0,54.46094,201.53906,103.99994,103.99994,0,1,0,201.53906,54.46094ZM65.77539,65.77441a88.08476,88.08476,0,0,1,118.52368-5.38794L60.38086,184.30579A87.98425,87.98425,0,0,1,65.77539,65.77441Z"/>
</symbol><symbol fill="currentColor" id="cube-adaptive" viewBox="0 0 512 512" xml:space="preserve" xmlns="http://www.w3.org/2000/svg">
<g>
	<g>
		<path d="M435.438,62.154H164.01c-5.047,0-9.138,4.091-9.138,9.138c0,5.047,4.091,9.138,9.138,9.138h271.428    c8.625,0,15.643,7.017,15.643,15.642v230.954c0,8.625-7.017,15.642-15.643,15.642h-50.866c-5.047,0-9.138,4.091-9.138,9.138    c0,5.047,4.091,9.138,9.138,9.138h50.866c18.703,0,33.919-15.215,33.919-33.918V96.072    C469.357,77.369,454.141,62.154,435.438,62.154z"/>
	</g>
</g>
<g>
	<g>
		<path d="M348.02,342.668H76.563c-8.625,0-15.643-7.017-15.643-15.642V96.072c0-8.625,7.018-15.642,15.643-15.642h50.894    c5.047,0,9.138-4.091,9.138-9.138c0-5.047-4.091-9.138-9.138-9.138H76.563c-18.704,0-33.919,15.215-33.919,33.918v230.954    c0,18.703,15.215,33.918,33.919,33.918H348.02c5.047,0,9.138-4.091,9.138-9.138C357.158,346.759,353.066,342.668,348.02,342.668z"/>
	</g>
</g>
<g>
	<g>
		<path d="M435.438,19.51H76.563C34.346,19.51,0,53.855,0,96.072v230.953c0,42.218,34.346,76.563,76.563,76.563h106.974v28.905    h-22.152c-16.541,0-29.998,13.457-29.998,29.998s13.457,29.998,29.998,29.998h189.23c16.541,0,29.998-13.457,29.998-29.998    s-13.457-29.998-29.998-29.998h-22.152v-28.905h106.975c42.217,0,76.562-34.346,76.562-76.563V96.072    C512,53.855,477.654,19.51,435.438,19.51z M350.615,450.77c6.464,0,11.722,5.259,11.722,11.722s-5.259,11.722-11.722,11.722    h-189.23c-6.464,0-11.722-5.259-11.722-11.722s5.259-11.722,11.722-11.722h31.29h126.65H350.615z M201.813,432.493v-28.905    h108.374v28.905H201.813z M493.725,327.025c0,32.139-26.147,58.287-58.286,58.287H319.326H192.675H76.563    c-32.14,0-58.287-26.147-58.287-58.287V96.072c0-32.139,26.147-58.286,58.287-58.286h358.875    c32.139,0,58.286,26.147,58.286,58.286V327.025z"/>
	</g>
</g>
</symbol><symbol viewBox="0 -22 256 256" preserveAspectRatio="xMidYMid" id="cube-bem" xmlns="http://www.w3.org/2000/svg">
	<g fill="currentColor">
		<path d="M0,32.6915521 L59.8506876,32.6915521 L59.8506876,50.2946955 L0,50.2946955 L0,32.6915521 Z M0,0 L59.8506876,0 L59.8506876,17.6031434 L0,17.6031434 L0,0 Z M107.379175,65.1316306 L0,65.1316306 L0,82.7347741 L103.355599,82.7347741 C114.671906,82.7347741 141.076621,82.9862475 150.884086,98.8290766 L150.884086,89.021611 C146.10609,73.4302554 132.023576,65.1316306 107.379175,65.1316306 L107.379175,65.1316306 Z M107.630648,97.8231827 L1.42108547e-14,97.8231827 L1.42108547e-14,115.426326 L103.355599,115.426326 C128.502947,115.426326 144.345776,116.43222 150.884086,119.952849 L150.884086,112.157171 C145.854617,99.8349705 124.730845,97.8231827 107.630648,97.8231827 L107.630648,97.8231827 Z M107.379175,180.80943 L0,180.80943 L0,163.206287 L103.355599,163.206287 C114.671906,163.206287 141.076621,162.954813 150.884086,147.111984 L150.884086,156.91945 C146.10609,172.510806 132.023576,180.80943 107.379175,180.80943 L107.379175,180.80943 Z M107.630648,148.117878 L1.42108547e-14,148.117878 L1.42108547e-14,130.514735 L103.355599,130.514735 C128.502947,130.514735 144.345776,129.508841 150.884086,125.988212 L150.884086,133.78389 C145.854617,146.10609 124.730845,148.117878 107.630648,148.117878 L107.630648,148.117878 Z M177.037328,211.237721 L256,211.237721 L256,200.424361 L179.300589,200.424361 C172.510806,200.424361 156.416503,200.172888 150.632613,190.868369 L150.632613,196.903733 C153.398821,206.208251 161.948919,211.237721 177.037328,211.237721 L177.037328,211.237721 Z M176.785855,191.371316 L255.748527,191.371316 L255.748527,180.557957 L179.300589,180.557957 C163.960707,180.557957 154.404715,180.05501 150.632613,177.791749 L150.632613,182.569745 C153.650295,190.113949 166.475442,191.371316 176.785855,191.371316 L176.785855,191.371316 Z">

</path>
	</g>
</symbol><symbol viewBox="0 0 24 24" fill="none" id="cube-figma" xmlns="http://www.w3.org/2000/svg">
<path d="M13 2.5V5C13 7.35702 13 8.53553 13.7322 9.26777C14.4645 10 15.643 10 18 10H22" stroke="currentColor" stroke-width="1.5"/>
<path d="M5 11.5C5 10.6716 5.67157 10 6.5 10H8V13H6.5C5.67157 13 5 12.3284 5 11.5Z" stroke="currentColor" stroke-width="1.5"/>
<path d="M5 14.5C5 13.6716 5.67157 13 6.5 13H8V16H6.5C5.67157 16 5 15.3284 5 14.5Z" stroke="currentColor" stroke-width="1.5"/>
<path d="M5 17.5C5 16.6716 5.67157 16 6.5 16H8V17.5C8 18.3284 7.32843 19 6.5 19C5.67157 19 5 18.3284 5 17.5Z" stroke="currentColor" stroke-width="1.5"/>
<path d="M8 10H9.5C10.3284 10 11 10.6716 11 11.5C11 12.3284 10.3284 13 9.5 13H8" stroke="currentColor" stroke-width="1.5"/>
<path d="M11 14.5C11 13.6716 10.3284 13 9.5 13C8.67157 13 8 13.6716 8 14.5C8 15.3284 8.67157 16 9.5 16C10.3284 16 11 15.3284 11 14.5Z" stroke="currentColor" stroke-width="1.5"/>
<path d="M2.75 10C2.75 9.58579 2.41421 9.25 2 9.25C1.58579 9.25 1.25 9.58579 1.25 10H2.75ZM21.25 14C21.25 14.4142 21.5858 14.75 22 14.75C22.4142 14.75 22.75 14.4142 22.75 14H21.25ZM15.3929 4.05365L14.8912 4.61112L15.3929 4.05365ZM19.3517 7.61654L18.85 8.17402L19.3517 7.61654ZM21.654 10.1541L20.9689 10.4592V10.4592L21.654 10.1541ZM3.17157 20.8284L3.7019 20.2981H3.7019L3.17157 20.8284ZM20.8284 20.8284L20.2981 20.2981L20.2981 20.2981L20.8284 20.8284ZM1.35509 5.92658C1.31455 6.33881 1.61585 6.70585 2.02807 6.7464C2.4403 6.78695 2.80734 6.48564 2.84789 6.07342L1.35509 5.92658ZM22.6449 18.0734C22.6855 17.6612 22.3841 17.2941 21.9719 17.2536C21.5597 17.2131 21.1927 17.5144 21.1521 17.9266L22.6449 18.0734ZM14 21.25H10V22.75H14V21.25ZM2.75 14V10H1.25V14H2.75ZM21.25 13.5629V14H22.75V13.5629H21.25ZM14.8912 4.61112L18.85 8.17402L19.8534 7.05907L15.8947 3.49618L14.8912 4.61112ZM22.75 13.5629C22.75 11.8745 22.7651 10.8055 22.3391 9.84897L20.9689 10.4592C21.2349 11.0565 21.25 11.742 21.25 13.5629H22.75ZM18.85 8.17402C20.2034 9.3921 20.7029 9.86199 20.9689 10.4592L22.3391 9.84897C21.9131 8.89241 21.1084 8.18853 19.8534 7.05907L18.85 8.17402ZM10.0298 2.75C11.6116 2.75 12.2085 2.76158 12.7405 2.96573L13.2779 1.5653C12.4261 1.23842 11.498 1.25 10.0298 1.25V2.75ZM15.8947 3.49618C14.8087 2.51878 14.1297 1.89214 13.2779 1.5653L12.7405 2.96573C13.2727 3.16993 13.7215 3.55836 14.8912 4.61112L15.8947 3.49618ZM10 21.25C8.09318 21.25 6.73851 21.2484 5.71085 21.1102C4.70476 20.975 4.12511 20.7213 3.7019 20.2981L2.64124 21.3588C3.38961 22.1071 4.33855 22.4392 5.51098 22.5969C6.66182 22.7516 8.13558 22.75 10 22.75V21.25ZM1.25 14C1.25 15.8644 1.24841 17.3382 1.40313 18.489C1.56076 19.6614 1.89288 20.6104 2.64124 21.3588L3.7019 20.2981C3.27869 19.8749 3.02502 19.2952 2.88976 18.2892C2.75159 17.2615 2.75 15.9068 2.75 14H1.25ZM14 22.75C15.8644 22.75 17.3382 22.7516 18.489 22.5969C19.6614 22.4392 20.6104 22.1071 21.3588 21.3588L20.2981 20.2981C19.8749 20.7213 19.2952 20.975 18.2892 21.1102C17.2615 21.2484 15.9068 21.25 14 21.25V22.75ZM10.0298 1.25C8.15538 1.25 6.67442 1.24842 5.51887 1.40307C4.34232 1.56054 3.39019 1.8923 2.64124 2.64124L3.7019 3.7019C4.12453 3.27928 4.70596 3.02525 5.71785 2.88982C6.75075 2.75158 8.11311 2.75 10.0298 2.75V1.25ZM2.84789 6.07342C2.96931 4.83905 3.23045 4.17335 3.7019 3.7019L2.64124 2.64124C1.80633 3.47616 1.48944 4.56072 1.35509 5.92658L2.84789 6.07342ZM21.1521 17.9266C21.0307 19.1609 20.7695 19.8266 20.2981 20.2981L21.3588 21.3588C22.1937 20.5238 22.5106 19.4393 22.6449 18.0734L21.1521 17.9266Z" fill="currentColor"/>
</symbol><symbol fill="currentColor" viewBox="0 0 32 32" id="cube-git" xmlns="http://www.w3.org/2000/svg">
<title>git</title>
<path d="M30.428 14.663l-13.095-13.094c-0.35-0.349-0.833-0.565-1.367-0.565s-1.017 0.216-1.367 0.565l0-0-2.713 2.718 3.449 3.449c0.22-0.077 0.473-0.121 0.737-0.121 1.269 0 2.297 1.028 2.297 2.297 0 0.269-0.046 0.526-0.131 0.766l0.005-0.016 3.322 3.324c0.222-0.079 0.479-0.125 0.746-0.125 1.268 0 2.296 1.028 2.296 2.296s-1.028 2.296-2.296 2.296c-1.268 0-2.296-1.028-2.296-2.296 0-0.313 0.063-0.611 0.176-0.883l-0.006 0.015-3.11-3.094v8.154c0.764 0.385 1.279 1.163 1.279 2.061 0 1.27-1.030 2.3-2.3 2.3s-2.3-1.030-2.3-2.3c0-0.634 0.256-1.207 0.671-1.623l-0 0c0.211-0.211 0.462-0.382 0.741-0.502l0.015-0.006v-8.234c-0.842-0.354-1.422-1.173-1.422-2.126 0-0.32 0.065-0.624 0.183-0.901l-0.006 0.015-3.389-3.405-8.98 8.974c-0.348 0.351-0.562 0.834-0.562 1.368s0.215 1.017 0.563 1.368l13.096 13.092c0.349 0.35 0.832 0.566 1.366 0.566s1.016-0.216 1.366-0.566l13.034-13.034c0.35-0.349 0.567-0.833 0.567-1.366s-0.217-1.017-0.567-1.366l-0-0z"/>
</symbol><symbol viewBox="0 0 24 24" fill="none" id="cube-grid" xmlns="http://www.w3.org/2000/svg">
<path d="M9 22H15C20 22 22 20 22 15V9C22 4 20 2 15 2H9C4 2 2 4 2 9V15C2 20 4 22 9 22Z" stroke="currentColor" stroke-width="1.5" stroke-linecap="round" stroke-linejoin="round"/>
<path d="M10 2V22" stroke="currentColor" stroke-width="1.5" stroke-linecap="round" stroke-linejoin="round"/>
<path d="M10 8.5H22" stroke="currentColor" stroke-width="1.5" stroke-linecap="round" stroke-linejoin="round"/>
<path d="M10 15.5H22" stroke="currentColor" stroke-width="1.5" stroke-linecap="round" stroke-linejoin="round"/>
</symbol><symbol fill="currentColor" viewBox="0 0 24 24" id="cube-gulp" xmlns="http://www.w3.org/2000/svg"><path d="M5.936 4.694c-.336 0-.675.078-1.013.222-.34.145-.676.346-1.007.605a7.133 7.133 0 0 0-.97.917c-.313.354-.61.745-.887 1.164-.276.42-.533.867-.78 1.32h-.001v.001c-.239.473-.448.96-.63 1.455-.18.496-.324.993-.438 1.497-.11.5-.178.987-.2 1.465a.515.515 0 0 0-.01.091v.095c0 .261.038.53.075.776v.002l.001.002c.068.262.175.504.31.717a1.7 1.7 0 0 0 .537.518c.217.138.474.207.776.207.263 0 .536-.06.817-.185.279-.125.557-.288.834-.479.268-.192.536-.412.794-.66.207-.192.396-.392.583-.59l-.196.608c-.085.293-.18.576-.257.853-.085.274-.152.52-.209.738-.057.216-.096.362-.096.456v.215c0 .241.025.411.104.518a.398.398 0 0 0 .333.152.435.435 0 0 0 .265-.095c.081-.06.15-.137.219-.224v-.002l.002-.001c.057-.087.115-.18.164-.278.05-.101.078-.19.107-.269v-.001l.067-.24.143-.495.19-.662c.076-.247.142-.495.227-.747l.225-.75c.072-.244.14-.465.203-.661.063-.2.116-.362.16-.493.02-.065.04-.116.054-.154l.014-.032.04.018.018-.048c.076-.218.151-.427.227-.626.076-.2.152-.4.21-.597a3.762 3.762 0 0 0 .22-1.29.637.637 0 0 0-.05-.255.44.44 0 0 0-.124-.18.499.499 0 0 0-.174-.1.622.622 0 0 0-.19-.03.655.655 0 0 0-.378.127c-.129.086-.225.229-.297.422v.001l-.55 1.764a3.91 3.91 0 0 1-.317.513v.001a9.407 9.407 0 0 1-1.71 1.832 3.53 3.53 0 0 1-.6.404 1.063 1.063 0 0 1-.5.146.48.48 0 0 1-.312-.103.637.637 0 0 1-.204-.275 1.582 1.582 0 0 1-.102-.387 3.182 3.182 0 0 1-.028-.422c0-.413.066-.874.198-1.394.132-.52.312-1.04.539-1.579.227-.54.492-1.06.786-1.571.293-.511.605-.965.926-1.362.32-.396.64-.706.97-.95.327-.244.62-.362.902-.362a.88.88 0 0 1 .497.145c.152.098.29.263.42.496v-.001c.134.259.269.46.385.606.12.15.259.227.408.227a.51.51 0 0 0 .416-.208c.115-.138.17-.327.17-.556 0-.096-.01-.2-.03-.307a.87.87 0 0 0-.14-.334c-.314-.47-.651-.807-1.01-1.024H7.06a2.216 2.216 0 0 0-1.125-.317zm10.961.855a.802.802 0 0 0-.41.12h-.001l-.001.001a.85.85 0 0 0-.318.43l-1.889 4.758-.417 1.045c-.153.38-.295.76-.447 1.148a4.792 4.792 0 0 0-.176.551 4.995 4.995 0 0 1-.257.215c-.207.16-.403.281-.589.365h-.002a1.045 1.045 0 0 1-.463.129c-.082 0-.137-.02-.172-.053-.035-.033-.056-.084-.056-.166 0-.185.028-.39.084-.615.057-.22.132-.451.217-.683a8.73 8.73 0 0 1 .274-.69l.276-.644c.086-.2.153-.382.21-.534a1.15 1.15 0 0 0 .089-.377.71.71 0 0 0-.143-.437.474.474 0 0 0-.39-.19.466.466 0 0 0-.378.179 1.514 1.514 0 0 0-.254.42 3.917 3.917 0 0 0-.201.537c-.056.19-.131.368-.207.535-.113.25-.246.524-.416.826a6.64 6.64 0 0 1-.565.849c-.207.26-.432.479-.675.654a1.26 1.26 0 0 1-.75.257c-.083 0-.138-.03-.167-.088a.472.472 0 0 1-.052-.225c.01-.204.046-.419.112-.643.066-.222.141-.443.226-.66.085-.21.18-.424.283-.625.105-.201.2-.391.294-.56v-.001l.248-.47a2.26 2.26 0 0 0 .135-.33l.001-.002v-.001c.01-.04.021-.09.021-.145a.419.419 0 0 0-.054-.214v-.001l-.001-.001a.526.526 0 0 0-.335-.238.65.65 0 0 0-.588.103c-.132.091-.231.232-.319.426a23.085 23.085 0 0 0-.79 1.817c-.19.505-.323.914-.418 1.229a4.666 4.666 0 0 0-.163.7v.001l-.02.231v.002c0 .214.029.4.09.55v.002c.068.147.148.266.249.357a.893.893 0 0 0 .36.191c.132.04.27.059.41.059.311 0 .598-.058.861-.155s.501-.232.714-.396a3.4 3.4 0 0 0 .563-.548c.12-.14.21-.285.3-.427-.04.22-.078.437-.078.614 0 .33.063.57.202.717a.695.695 0 0 0 .523.214c.208 0 .439-.057.694-.17.253-.113.51-.262.77-.446.065-.045.127-.093.19-.141l.005.036a1 1 0 0 0 .15.35h.001l.001.002c.08.099.17.18.291.24a.992.992 0 0 0 .45.091 2 2 0 0 0 .787-.175h.002c.268-.125.537-.279.805-.48a8.85 8.85 0 0 0 .812-.697l.01-.009c-.046.106-.09.212-.138.319-.219.484-.442.972-.674 1.471-.233.5-.466.994-.684 1.488l-.001.003-.001.002a3.93 3.93 0 0 1-.104.278c-.036.092-.085.188-.115.298v.001c-.037.1-.075.198-.095.306-.03.11-.04.217-.04.315 0 .208.059.367.172.447a.67.67 0 0 0 .398.115c.122 0 .234-.03.335-.08v-.001h.001a.95.95 0 0 0 .263-.22c.076-.09.14-.192.198-.308a3.91 3.91 0 0 0 .154-.365l.002-.004v-.004c.008-.037.037-.121.084-.244l.162-.436.19-.512.199-.522.17-.435c.048-.124.077-.21.095-.255v-.001c.019-.038.048-.095.085-.189l.133-.313.161-.37.172-.38.142-.342.103-.226.001-.001c.085-.17.188-.358.302-.566v-.001c.123-.207.255-.405.396-.612v-.001c.152-.2.302-.397.463-.585.161-.187.33-.347.5-.498.173-.14.346-.262.521-.345a1.14 1.14 0 0 1 .499-.128c.086 0 .143.018.178.039a.135.135 0 0 1 .042.103c0 .08-.043.207-.144.353v.001c-.104.16-.226.33-.377.519-.162.19-.323.389-.503.597-.18.21-.352.419-.514.628a6.18 6.18 0 0 0-.412.603v.001a1.518 1.518 0 0 0-.205.53v.007a.193.193 0 0 1-.004.022c-.003.01-.006.014-.006.035v.057c0 .257.092.465.274.606.183.152.441.22.76.22.349 0 .67-.068.97-.204.298-.134.605-.316.92-.556h.001c.315-.236.64-.517.991-.843.341-.325.739-.685 1.184-1.08a.847.847 0 0 0 .262-.352c.059-.138.089-.275.089-.41a.635.635 0 0 0-.082-.324.278.278 0 0 0-.248-.148.369.369 0 0 0-.164.043c-.053.026-.109.06-.17.101-.104.033.017.063.03.108-.538.481-1.004.887-1.373 1.206-.38.332-.699.588-.946.788a5.893 5.893 0 0 1-.574.41c-.132.079-.233.117-.289.117-.078 0-.132-.02-.156-.043a.142.142 0 0 1-.043-.108.22.22 0 0 1 .035-.075 1.55 1.55 0 0 1 .117-.152l.398-.465c.162-.181.324-.381.504-.6.18-.22.35-.447.502-.682.16-.23.285-.467.39-.7.101-.233.156-.455.156-.666a.837.837 0 0 0-.106-.426.92.92 0 0 0-.277-.3c-.11-.08-.238-.14-.375-.181h-.001a1.557 1.557 0 0 0-1.043.073 3.064 3.064 0 0 0-.598.332 5.677 5.677 0 0 0-.565.45 9.89 9.89 0 0 0-.38.378l.036-.176c.015-.073.025-.141.034-.207v-.001c.01-.068.013-.116.013-.149a.529.529 0 0 0-.126-.373v-.001h-.002c-.087-.09-.222-.129-.4-.129-.122 0-.24.07-.34.19a2.18 2.18 0 0 0-.263.418 4.225 4.225 0 0 0-.202.48l-.133.378v.001c-.046.159-.097.321-.15.485a.33.33 0 0 0-.041.014.33.33 0 0 0-.136.089l.003-.003c-.118.114-.251.247-.399.389-.147.142-.303.284-.464.426-.162.133-.326.275-.49.407-.162.13-.32.245-.471.345-.15.101-.29.18-.419.241a.776.776 0 0 1-.309.088c-.06 0-.085-.014-.1-.042h-.001a.311.311 0 0 1-.032-.155c0-.113.02-.243.064-.39.042-.146.086-.274.13-.385l.028-.03.374-.952c.142-.365.294-.746.465-1.152l.513-1.254c.17-.427.342-.84.503-1.234l.475-1.102c.142-.336.266-.619.37-.848l-.001.002c.059-.117.097-.227.135-.32v-.002a.934.934 0 0 0 .055-.297c0-.196-.061-.35-.18-.443a.6.6 0 0 0-.384-.133z"/></symbol><symbol fill="currentColor" id="cube-html" viewBox="0 0 482.139 482.139" xml:space="preserve" xmlns="http://www.w3.org/2000/svg">
<path d="M315.459,0H121.812c-28.29,0-51.315,23.041-51.315,51.314v189.755h-5.013c-11.418,0-20.677,9.251-20.677,20.679v125.404  c0,11.426,9.259,20.677,20.677,20.677h5.013v22.994c0,28.306,23.025,51.315,51.315,51.315h264.221c28.275,0,51.3-23.01,51.3-51.315  V121.449L315.459,0z M67.194,364.757v-76.185h17.304v29.281h28.37v-29.281h17.178v76.185h-17.178V332.89h-28.37v31.867H67.194z   M386.032,450.713H121.812c-10.955,0-19.874-8.92-19.874-19.89v-22.994h246.302c11.418,0,20.679-9.251,20.679-20.677V261.748  c0-11.428-9.261-20.679-20.679-20.679H101.938V51.314c0-10.937,8.919-19.857,19.874-19.857l181.89-0.189v67.233  c0,19.638,15.934,35.587,35.585,35.587l65.863-0.189l0.74,296.924C405.891,441.793,396.986,450.713,386.032,450.713z   M139.282,303.038v-14.466h58.549v14.466h-20.804v61.719h-17.29v-61.719H139.282z M204.796,364.757l4.855-76.185h22.948  l7.454,25.436c2.38,8.811,4.759,18.314,6.446,27.233h0.347c2.143-8.81,4.744-18.864,7.234-27.343l8.133-25.326h22.489l4.193,76.185  h-16.849l-1.135-29.157c-0.33-9.157-0.678-20.236-0.678-31.315h-0.331c-2.379,9.724-5.547,20.567-8.479,29.503l-9.267,29.725  h-13.459l-8.132-29.504c-2.491-8.92-5.09-19.779-6.903-29.724h-0.221c-0.457,10.292-0.788,22.048-1.355,31.536l-1.355,28.936  H204.796z M349.649,350.289v14.468h-47.596v-76.185h17.306v61.717H349.649z"/>
</symbol><symbol fill="currentColor" viewBox="0 0 14 14" id="cube-js" xmlns="http://www.w3.org/2000/svg"><path d="M 11.714286,1 2.285714,1 C 1.575893,1 1,1.57589 1,2.28571 l 0,9.42858 C 1,12.42411 1.575893,13 2.285714,13 l 9.428572,0 C 12.424107,13 13,12.42411 13,11.71429 L 13,2.28571 C 13,1.57589 12.424107,1 11.714286,1 Z m -4.183929,9.35893 c 0,1.16786 -0.685714,1.70089 -1.684821,1.70089 -0.902679,0 -1.425,-0.46607 -1.692857,-1.03125 l 0.91875,-0.55446 c 0.176785,0.31339 0.3375,0.57857 0.725892,0.57857 0.369643,0 0.605358,-0.14464 0.605358,-0.70982 l 0,-3.83304 1.127678,0 0,3.84911 z m 2.667857,1.70089 c -1.047321,0 -1.725,-0.49821 -2.054464,-1.15178 L 9.0625,10.37768 c 0.241071,0.39375 0.557143,0.68571 1.111607,0.68571 0.466072,0 0.766072,-0.23303 0.766072,-0.55714 0,-0.38571 -0.305358,-0.52232 -0.822322,-0.75 L 9.836607,9.63571 C 9.022321,9.29018 8.483929,8.85357 8.483929,7.93482 c 0,-0.84643 0.645535,-1.48928 1.65,-1.48928 0.717857,0 1.232142,0.2491 1.601785,0.90267 l -0.878571,0.5625 C 10.664286,7.56518 10.455357,7.42857 10.13125,7.42857 c -0.329464,0 -0.538393,0.20893 -0.538393,0.48214 0,0.3375 0.208929,0.47411 0.69375,0.68572 l 0.28125,0.12053 c 0.958929,0.40983 1.497322,0.83036 1.497322,1.77322 0,1.0125 -0.798215,1.56964 -1.866965,1.56964 z"/></symbol><symbol viewBox="0 0 24 24" id="cube-pixel" xmlns="http://www.w3.org/2000/svg">
  <path fill="none" stroke="currentColor" stroke-width="2" d="M7,23 L23,23 L23,7 L7,7 L7,23 Z M17,3.9997 L17,0.9997 L14,0.9997 M1,13.9997 L1,16.9997 L4,16.9997 M1,11.9997 L1,5.9997 L1,11.9997 Z M4,0.9997 L1,0.9997 L1,3.9997 M6,0.9997 L12,0.9997 L6,0.9997 Z"/>
</symbol><symbol viewBox="0 0 24 24" fill="none" id="cube-sass" xmlns="http://www.w3.org/2000/svg">
<path d="M12 0C18.6 0 24 5.4 24 12C24 18.6 18.6 24 12 24C5.4 24 0 18.6 0 12C0 5.4 5.4 0 12 0ZM9.6 15.975C9.75 16.65 9.75 17.25 9.6 17.775L9.525 18C9.525 18.075 9.45 18.15 9.45 18.15C9.3 18.45 9.15 18.675 8.925 18.975C8.25 19.725 7.275 20.025 6.825 19.8C6.375 19.575 6.6 18.45 7.425 17.625C8.325 16.725 9.525 16.125 9.525 16.125L9.6 15.975ZM19.5 5.1C18.975 3 15.45 2.25 12.075 3.45C10.125 4.2 7.95 5.325 6.375 6.75C4.5 8.475 4.275 9.975 4.35 10.575C4.8 12.75 7.8 14.25 9.075 15.3C8.7 15.45 6 16.8 5.4 18.225C4.725 19.725 5.475 20.775 6 20.85C7.575 21.3 9.225 20.475 10.05 19.2C10.875 17.925 10.8 16.35 10.425 15.525C10.95 15.375 11.475 15.3 12.225 15.45C14.325 15.675 14.775 17.025 14.625 17.55C14.475 18.075 14.1 18.375 13.95 18.525C13.8 18.6 13.725 18.675 13.8 18.675C13.8 18.75 13.875 18.75 14.025 18.75C14.175 18.75 15.15 18.3 15.15 17.25C15.225 15.975 13.95 14.55 11.775 14.55C10.875 14.55 10.275 14.625 9.9 14.775C9.9 14.7 9.825 14.7 9.825 14.7C8.475 13.275 6 12.225 6.075 10.275C6.075 9.6 6.375 7.725 10.875 5.475C14.55 3.6 17.55 4.125 18.075 5.25C18.825 6.825 16.5 9.825 12.675 10.275C11.175 10.425 10.425 9.9 10.275 9.675C10.05 9.45 10.05 9.45 9.975 9.45C9.825 9.525 9.9 9.675 9.975 9.825C10.125 10.125 10.575 10.65 11.4 10.95C12.075 11.175 13.8 11.325 15.9 10.5C18.225 9.6 20.025 7.125 19.5 5.025V5.1Z" fill="currentColor"/>
</symbol><symbol fill="none" viewBox="0 0 24 24" id="hi" xmlns="http://www.w3.org/2000/svg"><path d="M4 21V18.5C4 15.4624 6.46243 13 9.5 13H12.8513C15.307 13 17.4651 11.3721 18.1397 9.01097L18.7454 6.89097C18.8961 6.3636 19.3781 6 19.9266 6C20.7258 6 21.3122 6.75106 21.1184 7.5264L19.3638 14.5448C19.15 15.4 18.3816 16 17.5 16M8 21V18M16 6.5C16 8.70914 14.2091 10.5 12 10.5C9.79086 10.5 8 8.70914 8 6.5C8 4.29086 9.79086 2.5 12 2.5C14.2091 2.5 16 4.29086 16 6.5Z" stroke="currentColor" stroke-linecap="round" stroke-width="1.4"/></symbol><symbol fill="currentColor" id="left-arrow-cube" viewBox="0 0 512 512" xml:space="preserve" xmlns="http://www.w3.org/2000/svg">
<g>
	<g>
		<path d="M85.333,256.001L426.667,512V0L85.333,256.001z M409.551,477.769L113.86,256.001L409.551,34.232V477.769z"/>
	</g>
</g>
<g>
	<g>
		<polygon points="375.423,307.19 375.423,403.445 235.667,294.747 225.159,308.258 392.54,438.442 392.54,307.19   "/>
	</g>
</g>
</symbol><symbol fill="currentColor" viewBox="0 0 256 256" id="mw" xmlns="http://www.w3.org/2000/svg">
  <path d="M204.36719,204.36768A107.99986,107.99986,0,1,0,51.63281,51.63232,107.94924,107.94924,0,0,0,128,235.94922a108.77191,108.77191,0,0,0,23.36182-2.53833,11.9853,11.9853,0,0,0,1.85644-.42847A107.35015,107.35015,0,0,0,204.36719,204.36768ZM92.00317,180.9679l30.8147,30.81445a83.70508,83.70508,0,0,1-45.11328-16.516Zm16.97046-16.97083L128,144.9707l50.29541,50.2959a83.325,83.325,0,0,1-25.19067,12.86109Zm86.30371-86.3042a83.20644,83.20644,0,0,1,16.5503,45.15833L180.97339,91.99683Zm-31.27441,31.27478L208.17725,153.142a83.10639,83.10639,0,0,1-12.89991,25.16516L144.9707,128ZM68.60352,68.603a84.10194,84.10194,0,0,1,109.69189-7.86939L83.52026,155.50928l-.00268.00244-.00244.00268L60.72266,178.30713A84.01329,84.01329,0,0,1,68.60352,68.603Z"/>
</symbol><symbol viewBox="0 0 24 24" fill="none" id="parallax" xmlns="http://www.w3.org/2000/svg"><path d="M3 16C4.40293 15.7662 6.63687 15.7073 8.94504 16.2427M16 21C14.2965 18.2317 11.5726 16.8522 8.94504 16.2427M8.94504 16.2427C10.8946 13.9852 14.5577 12 21 12H22M8.5 7C8 7 7 7.3 7 8.5C7 9.7 8 10 8.5 10C9 10 10 9.7 10 8.5C10 7.3 9 7 8.5 7Z" stroke="currentColor" stroke-linecap="round" stroke-linejoin="round" stroke-width="2"/><circle cx="12" cy="12" r="10" stroke="currentColor" stroke-linecap="round" stroke-linejoin="round" stroke-width="2"/></symbol><symbol fill="none" viewBox="0 0 24 24" id="skills" xmlns="http://www.w3.org/2000/svg"><path d="M4 21V19.5C4 16.4624 6.46243 14 9.5 14H12.5C15.5376 14 18 16.4624 18 19.5V21M7 21V18M15 21V18M16.5 6L16.8367 5.49493C17.1969 4.95461 17.9371 4.82782 18.4566 5.21745C19.0073 5.63047 19.0645 6.43549 18.5778 6.92224L17.8536 7.64645C17.6272 7.87282 17.5 8.17986 17.5 8.5M17.5 10V10.2M13.8281 4.89801C14.6435 3.74945 15.9842 3 17.5 3C19.9853 3 22 5.01472 22 7.5C22 9.98528 19.9853 12 17.5 12C16.2549 12 15.1279 11.4943 14.3131 10.6771M15 8.00001C15 5.79086 13.2091 4 11 4C8.79086 4 7 5.79086 7 8.00001C7 10.2092 8.79086 12 11 12C11.8312 12 12.6032 11.7465 13.2429 11.3125C14.3033 10.5931 15 9.37794 15 8.00001Z" stroke="currentColor" stroke-linecap="round" stroke-linejoin="round" stroke-width="1.4"/></symbol><symbol fill="none" viewBox="0 0 24 24" id="works" xmlns="http://www.w3.org/2000/svg"><circle cx="10.5" cy="16.5" fill="currentColor" r="0.5"/><circle cx="10.5" cy="19.5" fill="currentColor" r="0.5"/><path d="M16.7 8C16.7 7.6134 16.3866 7.3 16 7.3C15.6134 7.3 15.3 7.6134 15.3 8H16.7ZM8.7 8C8.7 7.6134 8.3866 7.3 8 7.3C7.6134 7.3 7.3 7.6134 7.3 8H8.7ZM3.3 21C3.3 21.3866 3.6134 21.7 4 21.7C4.3866 21.7 4.7 21.3866 4.7 21H3.3ZM19.3 21C19.3 21.3866 19.6134 21.7 20 21.7C20.3866 21.7 20.7 21.3866 20.7 21H19.3ZM7.3 21C7.3 21.3866 7.6134 21.7 8 21.7C8.3866 21.7 8.7 21.3866 8.7 21H7.3ZM8.7 14.5C8.7 14.1134 8.3866 13.8 8 13.8C7.6134 13.8 7.3 14.1134 7.3 14.5H8.7ZM7.74372 8.39039C8.08582 8.57046 8.50913 8.4391 8.6892 8.097C8.86927 7.7549 8.73791 7.33159 8.39581 7.15152L7.74372 8.39039ZM9.61444 4.85393C9.95492 5.03706 10.3794 4.90951 10.5625 4.56903C10.7456 4.22856 10.6181 3.80409 10.2776 3.62096L9.61444 4.85393ZM15.6495 7.12651C15.3148 7.32009 15.2005 7.7483 15.3941 8.08294C15.5877 8.41759 16.0159 8.53194 16.3505 8.33836L15.6495 7.12651ZM13.6495 3.66164C13.3148 3.85522 13.2005 4.28343 13.3941 4.61807C13.5877 4.95272 14.0159 5.06707 14.3505 4.87349L13.6495 3.66164ZM13.3 4C13.3 4.3866 13.6134 4.7 14 4.7C14.3866 4.7 14.7 4.3866 14.7 4H13.3ZM10.2676 5L10.9023 4.70492L10.8891 4.67656L10.8735 4.64949L10.2676 5ZM10.808 6.44644C11.158 6.61055 11.5748 6.45983 11.7389 6.10979C11.903 5.75975 11.7523 5.34295 11.4023 5.17884L10.808 6.44644ZM8 6.8C7.6134 6.8 7.3 7.1134 7.3 7.5C7.3 7.8866 7.6134 8.2 8 8.2V6.8ZM10 8.2C10.3866 8.2 10.7 7.8866 10.7 7.5C10.7 7.1134 10.3866 6.8 10 6.8V8.2ZM15.3 21C15.3 21.3866 15.6134 21.7 16 21.7C16.3866 21.7 16.7 21.3866 16.7 21H15.3ZM16.7 18.3333C16.7 17.9467 16.3866 17.6333 16 17.6333C15.6134 17.6333 15.3 17.9467 15.3 18.3333H16.7ZM15.3 8C15.3 9.82254 13.8225 11.3 12 11.3V12.7C14.5957 12.7 16.7 10.5957 16.7 8H15.3ZM12 11.3C10.1775 11.3 8.7 9.82254 8.7 8H7.3C7.3 10.5957 9.40426 12.7 12 12.7V11.3ZM4.7 21V19.5H3.3V21H4.7ZM9.5 14.7H14.5V13.3H9.5V14.7ZM19.3 19.5V21H20.7V19.5H19.3ZM14.5 14.7C17.151 14.7 19.3 16.849 19.3 19.5H20.7C20.7 16.0758 17.9242 13.3 14.5 13.3V14.7ZM4.7 19.5C4.7 16.849 6.84903 14.7 9.5 14.7V13.3C6.07583 13.3 3.3 16.0758 3.3 19.5H4.7ZM8.7 21V14.5H7.3V21H8.7ZM7.7 6C7.7 5.28203 8.28203 4.7 9 4.7V3.3C7.50883 3.3 6.3 4.50883 6.3 6H7.7ZM8.39581 7.15152C7.9806 6.93297 7.7 6.49869 7.7 6H6.3C6.3 7.03876 6.8868 7.93934 7.74372 8.39039L8.39581 7.15152ZM9 4.7C9.22366 4.7 9.43219 4.7559 9.61444 4.85393L10.2776 3.62096C9.89654 3.416 9.46078 3.3 9 3.3V4.7ZM15 4.7C15.718 4.7 16.3 5.28203 16.3 6H17.7C17.7 4.50883 16.4912 3.3 15 3.3V4.7ZM16.3 6C16.3 6.4803 16.0399 6.90068 15.6495 7.12651L16.3505 8.33836C17.1557 7.87257 17.7 7.00026 17.7 6H16.3ZM14.3505 4.87349C14.541 4.76329 14.7621 4.7 15 4.7V3.3C14.5094 3.3 14.0473 3.4315 13.6495 3.66164L14.3505 4.87349ZM10.7 4C10.7 3.28203 11.282 2.7 12 2.7V1.3C10.5088 1.3 9.3 2.50883 9.3 4H10.7ZM12 2.7C12.718 2.7 13.3 3.28203 13.3 4H14.7C14.7 2.50883 13.4912 1.3 12 1.3V2.7ZM10.8735 4.64949C10.7633 4.45899 10.7 4.23795 10.7 4H9.3C9.3 4.49062 9.4315 4.95266 9.66164 5.35051L10.8735 4.64949ZM9.6328 5.29508C9.72169 5.48629 10.0531 6.09253 10.808 6.44644L11.4023 5.17884C11.0654 5.02089 10.9215 4.74617 10.9023 4.70492L9.6328 5.29508ZM8 8.2H10V6.8H8V8.2ZM16.7 21V18.3333H15.3V21H16.7Z" fill="currentColor"/></symbol></svg>